<?xml version="1.0" encoding="UTF-8" standalone="no"?>
<!-- Created with Inkscape (http://www.inkscape.org/) -->

<svg
   width="111.60666mm"
   height="102.31034mm"
   viewBox="0 0 111.60666 102.31034"
   version="1.1"
   id="svg1"
   xml:space="preserve"
   xmlns="http://www.w3.org/2000/svg"
   xmlns:svg="http://www.w3.org/2000/svg"><defs
     id="defs1" /><g
     id="layer1"
     transform="translate(-220.4007,-126.08828)"><path
       style="fill:#224480;fill-opacity:1;stroke:#ffffff;stroke-width:3.895;stroke-dasharray:none;stroke-opacity:1;paint-order:stroke fill markers"
       d="m 263.23341,225.65592 c -2.77165,-0.96766 -8.89087,-4.28454 -13.8525,-7.50865 -2.6078,-1.69458 -2.12199,-1.80644 -4.23743,0.97571 -1.2878,1.69367 -2.20962,3.17582 -3.03563,4.88086 -0.33562,0.69277 -0.66154,1.25958 -0.72427,1.25958 -0.47139,0 -6.36192,-6.39007 -6.15902,-6.68134 0.42354,-0.60799 11.4094,-10.7689 12.22363,-11.30572 0.31622,-0.20849 1.02022,-0.22046 1.55767,-0.0265 0.19796,0.0714 27.14376,-26.60743 27.12764,-26.85893 -0.005,-0.0866 -1.22762,-1.19477 -2.71572,-2.4626 -1.48809,-1.26783 -4.40606,-3.77423 -6.48436,-5.56978 -2.07831,-1.79555 -5.72714,-4.82512 -8.10853,-6.73239 -4.85661,-3.88968 -6.4128,-5.21397 -9.36811,-7.9721 -2.15903,-2.01498 -2.56018,-2.24993 -3.21676,-1.88407 -1.58532,0.88336 -4.37538,6.49215 -5.30572,10.66597 -0.54406,2.44087 -0.38435,2.30439 -1.95001,1.66639 -6.33699,-2.58232 -12.04426,-7.45379 -15.5337,-13.25885 -1.54788,-2.57508 -1.53185,-2.6892 0.51242,-3.64718 5.10325,-2.39146 10.02411,-6.09279 16.44189,-12.3671 7.84111,-7.66583 12.95305,-10.41087 20.01329,-10.74686 3.04444,-0.14487 3.18036,-0.015 1.43756,1.37385 -3.82486,3.048 -10.05214,9.50874 -10.35801,10.74633 -0.20634,0.8349 0.0711,1.21948 2.84885,3.94837 3.04858,2.99499 3.09394,3.07634 2.27182,4.07371 -0.70223,0.85193 9.25464,12.6444 15.45746,18.30713 0.3757,0.34299 1.71044,1.61841 2.96608,2.83427 6.85874,6.64143 4.76617,7.34433 18.24907,-6.12995 12.0299,-12.02224 12.0299,-12.02224 11.53301,-12.77242 -0.95594,-1.4432 -1.144,-1.10203 4.38396,-7.95303 10.50655,-13.02116 10.80109,-13.36874 11.32833,-13.36874 0.33425,0 3.7866,3.27623 3.7866,3.59342 0,0.20067 -10.35708,11.63127 -11.4662,12.65469 -1.00608,0.92834 -1.27101,1.59606 -0.71754,1.80845 0.48846,0.18744 1.013,-0.20678 4.33317,-3.25652 1.83834,-1.68863 3.73298,-3.42448 4.2103,-3.85746 0.47732,-0.43298 1.9642,-1.79687 3.30418,-3.03086 2.90008,-2.67069 2.32037,-2.59915 4.42305,-0.54588 1.95546,1.90951 2.04519,2.12847 1.14816,2.80149 -1.38392,1.03831 -10.67742,8.81704 -14.44578,12.09121 -4.7631,4.13846 -5.0041,4.2371 -6.6574,2.72476 -0.40879,-0.37394 0.95144,-1.63636 -11.68373,10.84356 -7.21295,7.12433 -11.3555,11.16916 -12.24299,11.95417 -0.86313,0.76347 -1.10138,0.39674 2.35831,3.63011 22.33154,20.87068 34.45004,34.00986 34.44349,37.34448 -0.009,4.36842 -8.41003,6.71665 -8.8903,2.48487 -0.49963,-4.40236 -3.62629,-8.35866 -17.86601,-22.60664 -7.22454,-7.22872 -10.61158,-10.49273 -14.89388,-14.35292 -0.82853,-0.74686 -0.82853,-0.74686 -14.26617,12.81261 -8.17207,8.24616 -13.42303,13.6596 -13.40035,13.81498 0.0205,0.14054 0.0816,0.52304 0.13579,0.85002 0.0893,0.5391 0.0441,0.64578 -0.48503,1.14483 -0.58351,0.55032 -0.58351,0.55032 1.30538,2.55859 3.09226,3.2877 8.95269,8.87852 11.09105,10.58083 1.3813,1.09962 1.22611,1.18804 -0.82701,0.47123 z"
       id="path3" /></g></svg>
